# xmcd
#
# Track frame offsets: 
#        300
#        20568
#        49064
#        68450
#        90640
#        114200
#        142686
#        155214
#        171659
#        187539
#        209432
#
# Disc length: 3245 seconds
#
# Revision: 0
# Processed by: cddbd v1.5.2PL0 Copyright (c) Steve Scherf et al.
# Submitted via: ExactAudioCopy v0.99pb5
#
DISCID=8d0ca90b
DTITLE=Bronco Bob - Everything's Chicken But The Gravy
DYEAR=2000
DGENRE=General Blues
TTITLE0=Heart Attack
TTITLE1=Juke Joint Jump
TTITLE2=Walkin The Dog
TTITLE3=Let Me Love You Baby
TTITLE4=Has Anyone Seen My Man
TTITLE5=Hound Dog
TTITLE6=Never Had It So Good
TTITLE7=Have Mercy
TTITLE8=Get Out My Life Woman
TTITLE9=Born Under A Bad Sign
TTITLE10=Mustang Sally
EXTD=
EXTT0=
EXTT1=
EXTT2=
EXTT3=
EXTT4=
EXTT5=
EXTT6=
EXTT7=
EXTT8=
EXTT9=
EXTT10=
PLAYORDER=
